<mxfile host="www.draw.io" modified="2020-02-07T09:22:55.739Z" agent="Mozilla/5.0 (Windows NT 6.1; WOW64) AppleWebKit/537.36 (KHTML, like Gecko) Chrome/79.0.3945.88 Safari/537.36" etag="0-CvYrm9HL7Kw7uHk8IJ" version="12.6.6" type="github">
  <diagram id="tGnM1YCElKfj-UU72ZZB" name="Page-1">
    <mxGraphModel dx="1422" dy="713" grid="1" gridSize="10" guides="1" tooltips="1" connect="1" arrows="1" fold="1" page="1" pageScale="1" pageWidth="827" pageHeight="1169" math="0" shadow="0">
      <root>
        <mxCell id="0"/>
        <mxCell id="1" parent="0"/>
        <mxCell id="fMwTwqZvbxAxBYwzF4Cc-2" style="edgeStyle=orthogonalEdgeStyle;rounded=0;orthogonalLoop=1;jettySize=auto;html=1;entryX=0.5;entryY=0;entryDx=0;entryDy=0;" edge="1" parent="1" source="8we97550TBcwLWRlNrUh-1" target="fMwTwqZvbxAxBYwzF4Cc-1">
          <mxGeometry relative="1" as="geometry"/>
        </mxCell>
        <mxCell id="8we97550TBcwLWRlNrUh-1" value="" style="ellipse;whiteSpace=wrap;html=1;" parent="1" vertex="1">
          <mxGeometry x="240" y="290" width="120" height="90" as="geometry"/>
        </mxCell>
        <mxCell id="fMwTwqZvbxAxBYwzF4Cc-1" value="" style="rhombus;whiteSpace=wrap;html=1;" vertex="1" parent="1">
          <mxGeometry x="260" y="470" width="80" height="80" as="geometry"/>
        </mxCell>
        <mxCell id="fMwTwqZvbxAxBYwzF4Cc-3" value="" style="shape=document;whiteSpace=wrap;html=1;boundedLbl=1;" vertex="1" parent="1">
          <mxGeometry x="560" y="320" width="120" height="80" as="geometry"/>
        </mxCell>
      </root>
    </mxGraphModel>
  </diagram>
</mxfile>
